HIERARCHY
ROOT Hips
{
	OFFSET -0.001795 -0.223333 0.028219
	CHANNELS 6 Xposition Yposition Zposition Zrotation Yrotation Xrotation 
	JOINT LeftUpLeg
	{
		OFFSET 0.069520 -0.091406 -0.006815
		CHANNELS 3 Zrotation Yrotation Xrotation
		JOINT LeftLeg
		{
			OFFSET 0.034277 -0.375199 -0.004496
			CHANNELS 3 Zrotation Yrotation Xrotation
			JOINT LeftFoot
			{
				OFFSET -0.013596 -0.397961 -0.043693
				CHANNELS 3 Zrotation Yrotation Xrotation
				JOINT LeftToe
				{
					OFFSET 0.026358 -0.055791 0.119288
					CHANNELS 3 Zrotation Yrotation Xrotation
					End Site
					{
						OFFSET 0.000000 0.000000 0.000000
					}
				}
			}
		}
	}
	JOINT RightUpLeg
	{
		OFFSET -0.067670 -0.090522 -0.004320
		CHANNELS 3 Zrotation Yrotation Xrotation
		JOINT RightLeg
		{
			OFFSET -0.038290 -0.382569 -0.008850
			CHANNELS 3 Zrotation Yrotation Xrotation
			JOINT RightFoot
			{
				OFFSET 0.015774 -0.398415 -0.042312
				CHANNELS 3 Zrotation Yrotation Xrotation
				JOINT RightToe
				{
					OFFSET -0.025372 -0.048144 0.123348
					CHANNELS 3 Zrotation Yrotation Xrotation
					End Site
					{
						OFFSET 0.000000 0.000000 0.000000
					}
				}
			}
		}
	}
	JOINT Spine
	{
		OFFSET -0.002533 0.108963 -0.026696
		CHANNELS 3 Zrotation Yrotation Xrotation
		JOINT Spine1
		{
			OFFSET 0.005487 0.135180 0.001092
			CHANNELS 3 Zrotation Yrotation Xrotation
			JOINT Spine2
			{
				OFFSET 0.001457 0.052922 0.025425
				CHANNELS 3 Zrotation Yrotation Xrotation
				JOINT Neck
				{
					OFFSET -0.002778 0.213870 -0.042857
					CHANNELS 3 Zrotation Yrotation Xrotation
					JOINT Head
					{
						OFFSET 0.005152 0.064970 0.051349
						CHANNELS 3 Zrotation Yrotation Xrotation
						End Site
						{
							OFFSET 0.000000 0.000000 0.000000
						}
					}
				}
				JOINT LeftShoulder
				{
					OFFSET 0.078845 0.121749 -0.034090
					CHANNELS 3 Zrotation Yrotation Xrotation
					JOINT LeftArm
					{
						OFFSET 0.090977 0.030469 -0.008868
						CHANNELS 3 Zrotation Yrotation Xrotation
						JOINT LeftForeArm
						{
							OFFSET 0.259612 -0.012772 -0.027456
							CHANNELS 3 Zrotation Yrotation Xrotation
							JOINT LeftHand
							{
								OFFSET 0.249234 0.008986 -0.001171
								CHANNELS 3 Zrotation Yrotation Xrotation
								End Site
								{
									OFFSET 0.000000 0.000000 0.000000
								}
							}
						}
					}
				}
				JOINT RightShoulder
				{
					OFFSET -0.081759 0.118833 -0.038615
					CHANNELS 3 Zrotation Yrotation Xrotation
					JOINT RightArm
					{
						OFFSET -0.096012 0.032551 -0.009143
						CHANNELS 3 Zrotation Yrotation Xrotation
						JOINT RightForeArm
						{
							OFFSET -0.253742 -0.013329 -0.021401
							CHANNELS 3 Zrotation Yrotation Xrotation
							JOINT RightHand
							{
								OFFSET -0.255298 0.007772 -0.005559
								CHANNELS 3 Zrotation Yrotation Xrotation
								End Site
								{
									OFFSET 0.000000 0.000000 0.000000
								}
							}
						}
					}
				}
			}
		}
	}
}
MOTION
Frames: 8
Frame Time: 0.050000
0.000000 0.900563 0.000000 -0.875324 -22.429829 1.281982 14.223871 2.025455 -16.216523 -4.865605 1.440298 11.840448 14.987303 24.377867 20.275960 0.000000 0.000000 0.000000 -11.058008 1.095999 2.213911 2.541877 0.515048 13.039287 -4.999849 -12.028321 1.945838 0.000000 0.000000 0.000000 2.824201 -0.543983 10.016712 -4.274641 1.107519 -26.388997 0.362996 10.892956 25.904634 2.445399 -1.017010 -16.324422 0.000000 0.000000 0.000000 -9.664798 -11.306385 5.210069 -40.446372 -30.334111 2.966633 115.678951 -60.035637 -75.102983 0.000000 0.000000 0.000000 11.134153 11.498489 4.038082 54.584491 35.614949 8.783558 176.221262 60.510957 -177.403210 0.000000 0.000000 0.000000 
-0.000012 0.899497 -0.000968 -0.338408 -22.328131 0.921913 14.642873 2.222407 -17.148674 -6.418799 2.050157 13.632280 14.752351 24.095982 20.211112 0.000000 0.000000 0.000000 -12.100786 1.270467 2.996143 3.870199 0.191259 11.544193 -5.674483 -13.415730 2.090333 0.000000 0.000000 0.000000 3.325452 -0.552184 9.080023 -5.797485 1.490771 -26.285621 -0.593215 10.422302 26.665997 2.276245 -0.896871 -17.461634 0.000000 0.000000 0.000000 -7.355832 -12.004914 5.293481 -42.734725 -29.229716 2.945442 122.391570 -55.962607 -76.575787 0.000000 0.000000 0.000000 11.376418 11.491821 3.972883 58.031533 38.812966 11.331500 173.408810 63.503600 178.095210 0.000000 0.000000 0.000000 
0.000449 0.902143 -0.001759 -0.993696 -20.179875 1.657092 15.250007 2.149303 -17.039592 -6.782354 1.822101 11.222678 13.699657 22.933997 19.983253 0.000000 0.000000 0.000000 -10.455633 0.967092 3.323129 3.002400 0.171084 9.689383 -6.456909 -16.210835 5.577434 0.000000 0.000000 0.000000 3.189954 -0.569899 9.304022 -6.482336 1.696009 -26.899301 0.073749 10.664183 27.405752 3.483352 -1.429798 -18.326278 0.000000 0.000000 0.000000 -8.379790 -12.539945 5.489746 -43.802634 -30.847972 3.523431 124.344650 -55.864514 -79.029339 0.000000 0.000000 0.000000 11.055110 10.317372 3.748075 57.560233 41.034168 12.499302 176.287333 65.166710 -175.846398 0.000000 0.000000 0.000000 
0.001614 0.898961 -0.001997 -1.589934 -17.839517 2.362369 16.907818 2.578949 -19.160291 -9.021442 2.472375 12.665570 12.448058 21.707686 18.375136 0.000000 0.000000 0.000000 -9.401468 0.758614 3.584998 2.768651 0.099660 8.329783 -7.529848 -18.578442 7.288638 0.000000 0.000000 0.000000 2.431391 -0.545789 9.925512 -6.250335 1.693348 -28.967348 0.734149 11.297896 28.302230 2.759478 -0.763050 -16.342616 0.000000 0.000000 0.000000 -9.691325 -12.143610 5.196108 -44.735441 -30.864090 3.433946 132.830986 -57.174305 -91.566321 0.000000 0.000000 0.000000 12.635928 9.660191 3.898935 55.406700 41.512584 12.086637 179.221222 65.689577 -169.602349 0.000000 0.000000 0.000000 
0.004384 0.896590 -0.001045 -1.399969 -14.120848 2.830929 17.095602 2.586655 -22.174653 -10.611164 2.957707 14.902562 10.679072 19.766607 17.021694 0.000000 0.000000 0.000000 -9.356245 0.649672 4.536948 3.605791 -0.126061 6.598795 -9.543435 -22.326774 9.473570 0.000000 0.000000 0.000000 1.404621 -0.493186 10.800240 -5.811213 1.658881 -29.198163 1.360603 11.818346 28.253628 1.346031 0.650632 -15.493844 0.000000 0.000000 0.000000 -10.878146 -11.202410 4.393389 -45.991370 -31.222583 3.695781 141.019361 -58.752558 -105.791717 0.000000 0.000000 0.000000 11.543764 9.388271 4.237167 54.672532 43.206842 13.037126 -174.106153 66.271711 -157.219413 0.000000 0.000000 0.000000 
0.009292 0.890177 0.002315 -1.310905 -11.021287 4.149761 17.595960 2.978852 -27.623041 -12.649460 4.025849 20.361738 9.333381 18.272746 15.720760 0.000000 0.000000 0.000000 -9.936553 0.648075 5.776560 4.683625 -0.340406 4.354353 -9.435581 -22.031304 7.170596 0.000000 0.000000 0.000000 1.522795 -0.537119 10.840922 -6.480526 1.832125 -29.338701 2.625221 12.646312 27.439828 2.619183 0.370123 -17.907897 0.000000 0.000000 0.000000 -11.170630 -9.789371 3.235583 -47.006882 -29.819197 3.396515 147.299745 -59.706909 -117.759729 0.000000 0.000000 0.000000 10.641477 8.954536 4.397543 53.677918 45.536058 14.395319 -164.646168 68.005074 -142.332565 0.000000 0.000000 0.000000 
0.018482 0.881695 0.011525 -0.769641 -8.147045 4.421577 16.865245 2.748810 -31.173158 -13.951048 4.834900 25.048890 8.474850 17.355823 13.314472 0.000000 0.000000 0.000000 -10.646324 0.647723 7.253773 4.249730 -0.327208 4.586488 -8.841982 -20.848828 4.208949 0.000000 0.000000 0.000000 0.871009 -0.492722 11.118123 -7.089844 1.973936 -29.350617 4.442282 14.380034 27.202553 3.497307 0.601574 -20.361272 0.000000 0.000000 0.000000 -11.059396 -8.895439 2.185446 -48.003175 -27.588854 2.681711 155.727225 -60.092301 -133.472693 0.000000 0.000000 0.000000 9.913481 8.673054 4.692472 51.194931 46.588574 14.407654 -154.903452 64.415878 -123.202724 0.000000 0.000000 0.000000 
0.034817 0.874929 0.028729 0.219799 -3.565915 5.107181 14.464900 1.583117 -35.121118 -15.299039 5.259562 28.601588 9.326391 19.113586 13.402013 0.000000 0.000000 0.000000 -11.839836 0.623347 8.996203 4.851582 -0.469247 5.500763 -9.318079 -22.107998 3.446211 0.000000 0.000000 0.000000 0.897657 -0.504383 10.492823 -8.324687 2.208032 -30.719743 6.504705 16.682307 27.803928 4.721974 0.801893 -21.735863 0.000000 0.000000 0.000000 -10.878795 -7.354232 0.568983 -47.676476 -23.092992 0.948899 170.390954 -61.561241 -162.266531 0.000000 0.000000 0.000000 7.603329 6.125327 3.750936 51.724721 46.545616 15.488346 -150.213927 63.217301 -111.820415 0.000000 0.000000 0.000000 
